<mxfile host="app.diagrams.net" modified="2021-08-09T09:19:35.694Z" agent="5.0 (Windows NT 10.0; Win64; x64) AppleWebKit/537.36 (KHTML, like Gecko) Chrome/92.0.4515.131 Safari/537.36" etag="jH3XPIJsCsmTGNjxaAcq" version="14.9.5" type="github">
  <diagram id="R2lEEEUBdFMjLlhIrx00" name="Page-1">
    <mxGraphModel dx="1235" dy="632" grid="1" gridSize="10" guides="1" tooltips="1" connect="1" arrows="1" fold="1" page="1" pageScale="1" pageWidth="827" pageHeight="1169" math="0" shadow="0" extFonts="Permanent Marker^https://fonts.googleapis.com/css?family=Permanent+Marker">
      <root>
        <mxCell id="0" />
        <mxCell id="1" parent="0" />
        <mxCell id="mFAeeIpVF1eG6Zho4usw-11" value="" style="edgeStyle=orthogonalEdgeStyle;rounded=0;orthogonalLoop=1;jettySize=auto;html=1;endArrow=none;endFill=0;exitX=0.023;exitY=0.181;exitDx=0;exitDy=0;exitPerimeter=0;" edge="1" parent="1" source="mFAeeIpVF1eG6Zho4usw-4" target="mFAeeIpVF1eG6Zho4usw-7">
          <mxGeometry relative="1" as="geometry" />
        </mxCell>
        <mxCell id="mFAeeIpVF1eG6Zho4usw-27" style="edgeStyle=orthogonalEdgeStyle;rounded=1;orthogonalLoop=1;jettySize=auto;html=1;endArrow=none;endFill=0;startArrow=oval;startFill=0;" edge="1" parent="1" source="mFAeeIpVF1eG6Zho4usw-4" target="mFAeeIpVF1eG6Zho4usw-26">
          <mxGeometry relative="1" as="geometry" />
        </mxCell>
        <mxCell id="mFAeeIpVF1eG6Zho4usw-4" value="article" style="whiteSpace=wrap;html=1;aspect=fixed;" vertex="1" parent="1">
          <mxGeometry x="393" y="370" width="80" height="80" as="geometry" />
        </mxCell>
        <mxCell id="mFAeeIpVF1eG6Zho4usw-15" style="edgeStyle=orthogonalEdgeStyle;rounded=1;orthogonalLoop=1;jettySize=auto;html=1;entryX=0.6;entryY=-0.009;entryDx=0;entryDy=0;endArrow=none;endFill=0;entryPerimeter=0;" edge="1" parent="1" source="mFAeeIpVF1eG6Zho4usw-5" target="mFAeeIpVF1eG6Zho4usw-4">
          <mxGeometry relative="1" as="geometry" />
        </mxCell>
        <mxCell id="mFAeeIpVF1eG6Zho4usw-5" value="imeage&amp;nbsp;" style="ellipse;whiteSpace=wrap;html=1;" vertex="1" parent="1">
          <mxGeometry x="170" y="110" width="120" height="80" as="geometry" />
        </mxCell>
        <mxCell id="mFAeeIpVF1eG6Zho4usw-7" value="title" style="ellipse;whiteSpace=wrap;html=1;" vertex="1" parent="1">
          <mxGeometry x="170" y="310" width="120" height="80" as="geometry" />
        </mxCell>
        <mxCell id="mFAeeIpVF1eG6Zho4usw-25" style="edgeStyle=orthogonalEdgeStyle;rounded=1;orthogonalLoop=1;jettySize=auto;html=1;entryX=0.838;entryY=0;entryDx=0;entryDy=0;entryPerimeter=0;endArrow=none;endFill=0;" edge="1" parent="1" source="mFAeeIpVF1eG6Zho4usw-8" target="mFAeeIpVF1eG6Zho4usw-4">
          <mxGeometry relative="1" as="geometry" />
        </mxCell>
        <mxCell id="mFAeeIpVF1eG6Zho4usw-8" value="writer" style="ellipse;whiteSpace=wrap;html=1;gradientColor=#ffffff;" vertex="1" parent="1">
          <mxGeometry x="400" y="50" width="120" height="80" as="geometry" />
        </mxCell>
        <mxCell id="mFAeeIpVF1eG6Zho4usw-12" style="rounded=1;orthogonalLoop=1;jettySize=auto;html=1;entryX=0.25;entryY=0;entryDx=0;entryDy=0;endArrow=none;endFill=0;edgeStyle=orthogonalEdgeStyle;" edge="1" parent="1" source="mFAeeIpVF1eG6Zho4usw-9" target="mFAeeIpVF1eG6Zho4usw-4">
          <mxGeometry relative="1" as="geometry" />
        </mxCell>
        <mxCell id="mFAeeIpVF1eG6Zho4usw-9" value="content" style="ellipse;whiteSpace=wrap;html=1;" vertex="1" parent="1">
          <mxGeometry x="170" y="210" width="120" height="80" as="geometry" />
        </mxCell>
        <mxCell id="mFAeeIpVF1eG6Zho4usw-14" style="edgeStyle=orthogonalEdgeStyle;rounded=1;orthogonalLoop=1;jettySize=auto;html=1;endArrow=none;endFill=0;" edge="1" parent="1" source="mFAeeIpVF1eG6Zho4usw-10">
          <mxGeometry relative="1" as="geometry">
            <mxPoint x="390" y="430" as="targetPoint" />
            <Array as="points">
              <mxPoint x="320" y="430" />
              <mxPoint x="320" y="430" />
            </Array>
          </mxGeometry>
        </mxCell>
        <mxCell id="mFAeeIpVF1eG6Zho4usw-10" value="article_id" style="ellipse;whiteSpace=wrap;html=1;" vertex="1" parent="1">
          <mxGeometry x="170" y="410" width="120" height="80" as="geometry" />
        </mxCell>
        <mxCell id="mFAeeIpVF1eG6Zho4usw-16" value="Project" style="whiteSpace=wrap;html=1;aspect=fixed;gradientColor=#ffffff;" vertex="1" parent="1">
          <mxGeometry x="393" y="840" width="80" height="80" as="geometry" />
        </mxCell>
        <mxCell id="mFAeeIpVF1eG6Zho4usw-22" value="" style="edgeStyle=orthogonalEdgeStyle;rounded=1;orthogonalLoop=1;jettySize=auto;html=1;endArrow=none;endFill=0;" edge="1" parent="1" source="mFAeeIpVF1eG6Zho4usw-17" target="mFAeeIpVF1eG6Zho4usw-16">
          <mxGeometry relative="1" as="geometry" />
        </mxCell>
        <mxCell id="mFAeeIpVF1eG6Zho4usw-17" value="title" style="ellipse;whiteSpace=wrap;html=1;gradientColor=#ffffff;" vertex="1" parent="1">
          <mxGeometry x="170" y="840" width="120" height="80" as="geometry" />
        </mxCell>
        <mxCell id="mFAeeIpVF1eG6Zho4usw-23" style="edgeStyle=orthogonalEdgeStyle;rounded=1;orthogonalLoop=1;jettySize=auto;html=1;entryX=0.187;entryY=1.004;entryDx=0;entryDy=0;entryPerimeter=0;endArrow=none;endFill=0;" edge="1" parent="1" source="mFAeeIpVF1eG6Zho4usw-18" target="mFAeeIpVF1eG6Zho4usw-16">
          <mxGeometry relative="1" as="geometry" />
        </mxCell>
        <mxCell id="mFAeeIpVF1eG6Zho4usw-18" value="description" style="ellipse;whiteSpace=wrap;html=1;gradientColor=#ffffff;" vertex="1" parent="1">
          <mxGeometry x="170" y="940" width="120" height="80" as="geometry" />
        </mxCell>
        <mxCell id="mFAeeIpVF1eG6Zho4usw-24" style="edgeStyle=orthogonalEdgeStyle;rounded=1;orthogonalLoop=1;jettySize=auto;html=1;entryX=0.583;entryY=0.996;entryDx=0;entryDy=0;entryPerimeter=0;endArrow=none;endFill=0;" edge="1" parent="1" source="mFAeeIpVF1eG6Zho4usw-20" target="mFAeeIpVF1eG6Zho4usw-16">
          <mxGeometry relative="1" as="geometry" />
        </mxCell>
        <mxCell id="mFAeeIpVF1eG6Zho4usw-20" value="image&amp;nbsp;" style="ellipse;whiteSpace=wrap;html=1;gradientColor=#ffffff;" vertex="1" parent="1">
          <mxGeometry x="170" y="1030" width="120" height="80" as="geometry" />
        </mxCell>
        <mxCell id="mFAeeIpVF1eG6Zho4usw-28" style="edgeStyle=orthogonalEdgeStyle;rounded=1;orthogonalLoop=1;jettySize=auto;html=1;endArrow=ERzeroToMany;endFill=1;" edge="1" parent="1" source="mFAeeIpVF1eG6Zho4usw-26" target="mFAeeIpVF1eG6Zho4usw-16">
          <mxGeometry relative="1" as="geometry" />
        </mxCell>
        <mxCell id="mFAeeIpVF1eG6Zho4usw-26" value="소속" style="rhombus;whiteSpace=wrap;html=1;gradientColor=#ffffff;" vertex="1" parent="1">
          <mxGeometry x="393" y="610" width="80" height="80" as="geometry" />
        </mxCell>
      </root>
    </mxGraphModel>
  </diagram>
</mxfile>
